<?xml version="1.0" encoding="UTF-8"?>
<!-- The Best Svg Icon site in the world: iconSvg.co, Visit us! https://iconsvg.co -->
<svg fill="#000000" width="800px" height="800px" version="1.1" viewBox="144 144 512 512" xmlns="http://www.w3.org/2000/svg">
 <g>
  <path d="m620.41 557.44v-53.531c0-16.793-13.645-30.438-30.438-30.438l-95.516 0.003906v-31.488c0-6.2969-4.1992-10.496-10.496-10.496h-30.438c1.0508-39.887 11.547-78.719 30.438-113.36 7.3477-13.645 10.496-28.34 10.496-44.082 0-27.289-11.547-52.48-31.488-70.324s-47.23-26.238-73.473-23.09c-40.934 4.1992-75.57 37.785-82.918 78.719-3.1484 19.941 0 38.836 8.3984 56.68 19.941 39.887 30.438 78.719 31.488 116.51l-30.438-0.007813c-6.2969 0-10.496 4.1992-10.496 10.496v31.488h-95.516c-16.793-1.0469-30.438 12.598-30.438 29.391v53.527z"/>
  <path d="m179.58 578.43c0 23.09 18.895 41.984 41.984 41.984h356.86c23.09 0 41.984-18.895 41.984-41.984z"/>
 </g>
</svg>